<svg width="64" height="44" viewBox="0 0 64 44" fill="none" xmlns="http://www.w3.org/2000/svg">
<g clip-path="url(#clip0_10775_269)">
<path d="M29.7463 41C19.4634 41.0501 11 32.5329 11 22.165C11 10.8354 19.4634 2.99865 29.7463 3H34.5656C44.7267 2.99865 54.0013 10.8313 54.0013 22.165C54.0013 32.5288 44.7267 41 34.5656 41H29.7463ZM29.7874 4.57195C20.391 4.57601 12.7771 12.3613 12.7758 21.9675C12.7771 31.5737 20.391 39.3564 29.7874 39.3591C39.185 39.3577 46.8003 31.5737 46.8029 21.9675C46.8003 12.3613 39.185 4.57601 29.7874 4.57195ZM25.9248 32.2528V11.6782C21.881 13.2704 19.0135 17.2706 19.003 21.9675C19.0135 26.6631 21.881 30.6633 25.9248 32.2542V32.2528ZM40.5731 21.9675C40.5651 17.2693 37.6924 13.2637 33.6459 11.6768V32.2569C37.6924 30.6687 40.5651 26.6658 40.5731 21.9675Z" fill="black"/>
</g>
<defs>
<clipPath id="clip0_10775_269">
<rect width="43" height="38" fill="white" transform="translate(11 3)"/>
</clipPath>
</defs>
</svg>
