<?xml version="1.0" encoding="UTF-8"?>
<svg version="1.1" xmlns="http://www.w3.org/2000/svg" width="3865" height="1551">
<path d="M0 0 C283.14 0 566.28 0 858 0 C855.68063857 28.99201786 855.68063857 28.99201786 854.30859375 43.3046875 C854.15684206 44.89844157 854.00515608 46.4922019 853.85353088 48.08596802 C853.54147246 51.36082731 853.22791575 54.6355388 852.91333008 57.91015625 C852.51060416 62.10469998 852.11300736 66.29971403 851.71656704 70.49485588 C851.40757814 73.75665419 851.09539237 77.01814056 850.78227425 80.27954483 C850.6340316 81.82880075 850.48691684 83.37816503 850.34097099 84.92763901 C850.13878113 87.07042276 849.93215101 89.21273314 849.72436523 91.35498047 C849.60826401 92.56975067 849.49216278 93.78452087 849.37254333 95.03610229 C849 98 849 98 848 101 C742.07 101 636.14 101 527 101 C527 215.51 527 330.02 527 448 C615.5551122 459.28536297 615.5551122 459.28536297 725 432 C725.63679688 431.52820313 726.27359375 431.05640625 726.9296875 430.5703125 C736.70968639 422.87671337 743.71257327 410.1776675 746 398 C747.62512126 380.37820315 741.86762462 366.27634957 730.88598633 352.7355957 C716.11217363 335.15454376 696.44142606 322.82708557 677 311 C681.38023359 306.17447295 686.47007101 302.78699106 691.875 299.1875 C693.85486393 297.85389916 695.83400742 296.51922824 697.8125 295.18359375 C698.83214844 294.4963623 699.85179688 293.80913086 700.90234375 293.10107422 C705.92406459 289.69494799 710.89968941 286.22341622 715.875 282.75 C722.23672934 278.31371176 728.6027134 273.88488135 735 269.5 C745.3711588 262.38792499 755.68107158 255.18752924 766 248 C788.73624817 232.16333151 788.73624817 232.16333151 798.84960938 225.23242188 C805.87488186 220.41200414 812.8607883 215.53490105 819.84570312 210.65625 C822.5592425 208.76413695 825.27761924 206.8793665 828 205 C828.86512207 204.4013916 829.73024414 203.8027832 830.62158203 203.18603516 C831.42837402 202.63608887 832.23516602 202.08614258 833.06640625 201.51953125 C833.77869385 201.03202393 834.49098145 200.5445166 835.22485352 200.04223633 C837 199 837 199 839 199 C833.75687428 255.70296687 828.37098915 312.39223868 822.9240551 369.0759697 C821.60292983 382.82551819 820.28583218 396.57543836 818.97563805 410.32603221 C817.93008615 421.29800061 816.87876489 432.26940458 815.82220966 443.24031889 C815.23498126 449.33955225 814.65026191 455.43900109 814.07181358 461.53907394 C813.53405276 467.20900158 812.98928228 472.87821099 812.43899345 478.54693604 C812.23884401 480.62162032 812.04127514 482.6965554 811.84646225 484.77174759 C811.5807761 487.59776856 811.30587474 490.42274515 811.02861023 493.24765015 C810.91610972 494.47976968 810.91610972 494.47976968 810.80133647 495.73678052 C810.39574638 499.76566651 809.99194639 503.39573421 808 507 C805.46411588 508.32635933 803.21144747 509.28528535 800.53125 510.20703125 C799.76152863 510.48896835 798.99180725 510.77090546 798.19876099 511.06138611 C795.63830884 511.99536543 793.06934909 512.90331398 790.5 513.8125 C788.68329588 514.47146951 786.86738973 515.13264264 785.05224609 515.79589844 C781.25810188 517.18157182 777.46138844 518.55985191 773.66308594 519.93408203 C765.8006882 522.78995531 757.98927741 525.77738369 750.17871094 528.77148438 C745.81112509 530.4450297 741.44049439 532.1105922 737.0703125 533.77734375 C735.73181244 534.28815994 735.73181244 534.28815994 734.36627197 534.80929565 C723.41510078 538.98821497 712.45742713 543.15001875 701.5 547.3125 C699.39208653 548.1133539 697.28417638 548.91421655 695.17626953 549.71508789 C687.71493605 552.54984421 680.25346342 555.3842342 672.79199219 558.21862793 C665.361247 561.04137179 657.93056962 563.86429402 650.5 566.6875 C648.93487671 567.28215561 648.93487671 567.28215561 647.33813477 567.88882446 C633.22272596 573.25214899 619.10997932 578.62240868 605 584 C589.8364772 589.77911752 574.66946164 595.54898891 559.5 601.3125 C558.457229 601.70869537 557.41445801 602.10489075 556.34008789 602.51309204 C547.82417504 605.74858407 539.3080866 608.98361383 530.79199219 612.21862793 C516.20252154 617.76078254 501.6134191 623.30390378 487.02539062 628.84985352 C484.99806474 629.62057109 482.97072081 630.39124119 480.94335938 631.16186523 C475.04312735 633.40465177 469.14324504 635.64835373 463.24389648 637.89346313 C461.4427381 638.57879356 459.64147204 639.26384109 457.84008789 639.94857788 C456.15636949 640.58864095 454.47281005 641.22912237 452.78942871 641.87007141 C451.23066882 642.46348882 449.6715205 643.05588715 448.11193848 643.6471405 C443.39761206 645.44110087 438.73319786 647.32332057 434.12304688 649.37329102 C427.87722048 651.21701645 422.93767264 649.13304128 417.171875 646.8359375 C415.85732582 646.32673767 415.85732582 646.32673767 414.51622009 645.80725098 C412.6020687 645.06451524 410.68969475 644.31718638 408.77890015 643.56585693 C404.61167183 641.92744943 400.43595281 640.31119823 396.26078796 638.69314575 C394.02084555 637.82473934 391.78136393 636.95514355 389.54231262 636.08444214 C377.52068256 631.41225595 365.46070777 626.84252818 353.39758301 622.27877808 C347.21587042 619.93981353 341.03572107 617.59672594 334.85546875 615.25390625 C333.66208893 614.80161148 332.46870911 614.34931671 331.23916626 613.88331604 C320.65506643 609.87117998 310.07636447 605.84497594 299.5 601.8125 C284.5034026 596.09519428 269.50313539 590.38762838 254.5 584.6875 C253.45650391 584.29103271 252.41300781 583.89456543 251.33789062 583.48608398 C243.89202308 580.65713662 236.44602724 577.82852701 229 575 C220.49991156 571.7710661 211.99987924 568.54198456 203.5 565.3125 C201.93487671 564.71784439 201.93487671 564.71784439 200.33813477 564.11117554 C186.22272588 558.74785098 172.11000235 553.37753103 158 548 C144.71565352 542.93731297 131.42983893 537.87851206 118.140625 532.82861328 C113.87516369 531.20756079 109.61094419 529.5833022 105.34765625 527.95654297 C95.47909373 524.19463337 85.59986013 520.47250756 75.67578125 516.859375 C73.09596326 515.91243109 70.51669421 514.96400974 67.93765259 514.01495361 C65.55905198 513.14655907 63.17384865 512.29846941 60.7878418 511.45068359 C59.3685895 510.92911547 57.94970118 510.40655541 56.53125 509.8828125 C55.30986328 509.44340332 54.08847656 509.00399414 52.83007812 508.55126953 C49.38102332 506.6607162 49.16116807 505.66217533 48 502 C47.56565416 499.45885074 47.56565416 499.45885074 47.3010006 496.70792961 C47.19600003 495.65480579 47.09099946 494.60168197 46.98281705 493.51664531 C46.87580524 492.36597139 46.76879342 491.21529747 46.65853882 490.02975464 C46.53840695 488.8025335 46.41827508 487.57531237 46.29450285 486.31090271 C45.96292768 482.90799773 45.63810744 479.50456983 45.31612206 476.10075212 C44.96711856 472.42878433 44.60943808 468.7576607 44.25282288 465.08642578 C43.55576907 457.89639197 42.86667674 450.70561622 42.18017648 443.51456796 C41.3807399 435.1441206 40.57305623 426.77447533 39.76492329 418.40486385 C38.32361511 403.47507253 36.88922891 388.54462446 35.45898438 373.61376953 C34.07033565 359.11726427 32.67772961 344.62114724 31.28027344 330.12548828 C31.19417601 329.23239943 31.10807859 328.33931059 31.01937215 327.41915844 C30.67331433 323.82960645 30.32724458 320.24005561 29.98115518 316.65050667 C28.48971697 301.18069188 27.00147378 285.71056948 25.51371342 270.24040061 C25.27255506 267.73301258 25.03132555 265.2256314 24.79008055 262.71825171 C23.94585238 253.94298316 23.10260203 245.16762226 22.26204966 236.39200078 C21.91437995 232.76225005 21.56628285 229.13254181 21.21697044 225.50294876 C20.83889846 221.57420924 20.46306522 217.64525748 20.0874939 213.71627808 C19.97602064 212.56114271 19.86454737 211.40600734 19.74969614 210.21586788 C19.60001852 208.64400539 19.60001852 208.64400539 19.44731712 207.04038811 C19.36030615 206.13290884 19.27329518 205.22542957 19.18364751 204.29045093 C19 202 19 202 19 199 C23.51866614 200.54337743 27.1923219 203.02266729 31.0625 205.75 C31.75150391 206.22953125 32.44050781 206.7090625 33.15039062 207.203125 C35.43730098 208.79684742 37.71888495 210.39799554 40 212 C41.6443619 213.15128359 43.28889667 214.3023203 44.93359375 215.453125 C47.48342386 217.23780849 50.03285828 219.02304307 52.58105469 220.81005859 C58.26932197 224.79749701 63.980457 228.74934091 69.7109375 232.67578125 C75.6599669 236.75612945 81.58062756 240.87678128 87.5 245 C93.98742299 249.51852456 100.4791962 254.02976343 107 258.5 C114.52768896 263.66049117 122.01619282 268.87674362 129.50512695 274.09326172 C135.05321431 277.95595292 140.6107731 281.80378968 146.1875 285.625 C152.33683959 289.84035741 158.45474342 294.09962611 164.5625 298.375 C165.39612061 298.95846191 166.22974121 299.54192383 167.08862305 300.14306641 C171.7428519 303.40521367 176.38050556 306.68884559 181 310 C177.97044002 313.20107687 174.43414347 315.29781702 170.6875 317.5625 C159.8313173 324.25110245 149.50525122 331.26028312 140.16796875 339.98828125 C138.29103882 341.72993695 136.37059484 343.33653965 134.375 344.9375 C122.51101341 355.13441587 113.04779602 370.91718772 111.69140625 386.55859375 C111.13683162 402.97736396 117.04984151 416.16399409 128.0703125 428.1640625 C174.67727933 472.50672325 310.40106078 447.87125663 331 448 C331 333.49 331 218.98 331 101 C225.07 101 119.14 101 10 101 C7.7018243 86.06185797 7.7018243 86.06185797 7.03857422 78.984375 C6.9602536 78.18096176 6.88193298 77.37754852 6.80123901 76.54978943 C6.54877224 73.950194 6.30156591 71.35013157 6.0546875 68.75 C5.87843886 66.91965318 5.70193063 65.08933133 5.525177 63.2590332 C5.15817536 59.45041425 4.79368755 55.64156618 4.43115234 51.83251953 C3.96684876 46.95549027 3.49708896 42.07900525 3.02558708 37.20266724 C2.66173204 33.43505236 2.30026898 29.66721108 1.93957901 25.89929199 C1.76717005 24.10032119 1.59412899 22.30141084 1.42043686 20.50256348 C1.17880832 17.99541732 0.94029094 15.48799434 0.70263672 12.98046875 C0.6309729 12.24275742 0.55930908 11.50504608 0.48547363 10.74497986 C0.14596447 7.12732588 0 3.64427457 0 0 Z " fill="#FFFFFF" transform="translate(1442,381)"/>
<path d="M0 0 C2.79907671 1.27570604 4.83368832 2.5891678 6.98925781 4.77807617 C7.54373596 5.33593307 8.09821411 5.89378998 8.66949463 6.46855164 C9.55239166 7.37163811 9.55239166 7.37163811 10.453125 8.29296875 C11.38170319 9.22934929 11.38170319 9.22934929 12.32904053 10.18464661 C14.30751147 12.1808997 16.27918743 14.183688 18.25 16.1875 C20.835141 18.80937082 23.42345008 21.4280518 26.015625 24.04296875 C26.95408264 24.98981033 26.95408264 24.98981033 27.91149902 25.95578003 C31.46119164 29.51716723 35.08555946 32.90054978 38.92480469 36.1496582 C44.79530675 41.3840741 50.20096086 47.15586203 55.72753906 52.74804688 C61.30853288 58.38932431 66.84808291 63.97073462 72.89453125 69.1171875 C78.56687884 74.18967644 83.80854768 79.76279938 89.15478516 85.17529297 C96.35932929 92.53620225 96.35932929 92.53620225 103.96875 99.46875 C110.61261562 105.13089978 116.59641431 111.54413884 122.72753906 117.74804688 C131.22787234 126.34063186 131.22787234 126.34063186 140.203125 134.43017578 C143.45734754 137.27319901 146.46710351 140.36229916 149.5 143.4375 C150.13164063 144.07365234 150.76328125 144.70980469 151.4140625 145.36523438 C152.94505774 146.90782806 154.47287667 148.45357314 156 150 C154.61748005 154.03234986 152.75960237 156.76732294 150 160 C146.24595429 164.48217541 142.62596604 169.03646086 139.07519531 173.6809082 C135.48967536 178.36773377 131.87506898 183.03120022 128.25 187.6875 C127.367677 188.82179443 127.367677 188.82179443 126.4675293 189.97900391 C123.40764652 193.91165952 120.3434027 197.84083467 117.2734375 201.765625 C111.03814098 209.74544797 104.85987661 217.73793795 99 226 C99.87970459 226.28182129 100.75940918 226.56364258 101.66577148 226.85400391 C104.65383485 227.88102078 107.47243442 229.03195274 110.34765625 230.3359375 C111.40380127 230.81248779 112.45994629 231.28903809 113.5480957 231.7800293 C114.70784912 232.30636963 115.86760254 232.83270996 117.0625 233.375 C119.68152285 234.55769699 122.30167659 235.7378788 124.921875 236.91796875 C125.63048172 237.2373793 126.33908844 237.55678986 127.06916809 237.88587952 C135.67735148 241.76232684 144.30936004 245.58507325 152.9392395 249.41290283 C167.84359957 256.02457454 182.73511141 262.66343832 197.60028076 269.36279297 C200.09566987 270.48678886 202.59189208 271.60891337 205.08837891 272.73046875 C211.84265832 275.76621731 218.5946422 278.80519325 225.31976318 281.90512085 C227.25339728 282.79521436 229.18941014 283.67987895 231.12646484 284.5625 C233.42219983 285.61010812 235.71330428 286.66795339 237.99853516 287.73828125 C238.99288574 288.18945312 239.98723633 288.640625 241.01171875 289.10546875 C241.86209717 289.49887451 242.71247559 289.89228027 243.58862305 290.29760742 C246.48748276 291.14199533 248.13467053 290.88353089 251 290 C253.89495749 288.21867886 253.89495749 288.21867886 256.9375 285.875 C258.17656637 284.96236889 259.41759008 284.05239155 260.66015625 283.14453125 C261.34480957 282.6438916 262.02946289 282.14325195 262.73486328 281.62744141 C267.05705627 278.52205895 271.47089925 275.54998426 275.875 272.5625 C277.7813057 271.26700905 279.68755625 269.97143693 281.59375 268.67578125 C282.51285156 268.0513916 283.43195312 267.42700195 284.37890625 266.78369141 C288.05220609 264.28395886 291.71522434 261.76947723 295.375 259.25 C296.32995361 258.59269897 296.32995361 258.59269897 297.30419922 257.92211914 C298.56844335 257.05171701 299.83260444 256.18119425 301.09667969 255.31054688 C304.39646959 253.03844936 307.69839221 250.76945468 311 248.5 C311.98419922 247.82324219 311.98419922 247.82324219 312.98828125 247.1328125 C316.39491829 244.79033124 319.80231451 242.44896565 323.2109375 240.109375 C323.90300293 239.63411377 324.59506836 239.15885254 325.30810547 238.66918945 C326.66875952 237.7349251 328.02975335 236.8011554 329.39111328 235.86791992 C334.02879765 232.68393332 338.62232438 229.44282626 343.1796875 226.14453125 C345 225 345 225 347 225 C340.9954558 217.39734714 334.62350427 210.2747315 328 203.21484375 C325.19482746 200.22225667 322.48385954 197.1603944 319.8046875 194.0546875 C317.41218226 191.33075297 314.95594058 188.66656731 312.5 186 C308.90355475 182.09428703 305.36202839 178.15057517 301.88671875 174.13671875 C298.94745222 170.80798419 295.928655 167.55211128 292.90625 164.29882812 C290.13276496 161.29754964 287.51448944 158.22113753 285 155 C286.51173608 150.83327742 289.47085573 148.94931599 293 146.5625 C294.27659266 145.67527144 295.5526064 144.78720948 296.828125 143.8984375 C297.50681641 143.42889648 298.18550781 142.95935547 298.88476562 142.47558594 C302.53983193 139.92581438 306.14221961 137.30353294 309.75 134.6875 C311.28632643 133.57664046 312.82278609 132.46596518 314.359375 131.35546875 C315.12701172 130.80036621 315.89464844 130.24526367 316.68554688 129.67333984 C320.45593019 126.94736861 324.22803694 124.22378466 328 121.5 C329.50000859 120.41667856 331.00000858 119.33334521 332.5 118.25 C365.5 94.41666667 398.5 70.58333333 431.5 46.75 C432.24386963 46.21270264 432.98773926 45.67540527 433.75415039 45.12182617 C435.24009221 44.04876263 436.72625421 42.97600394 438.21264648 41.90356445 C442.17968371 39.04068665 446.14172098 36.17117246 450.09765625 33.29296875 C450.92845703 32.6896875 451.75925781 32.08640625 452.61523438 31.46484375 C454.22079603 30.29879338 455.82501094 29.13088591 457.42773438 27.9609375 C458.5018457 27.18169922 458.5018457 27.18169922 459.59765625 26.38671875 C460.23195557 25.92483154 460.86625488 25.46294434 461.51977539 24.98706055 C463 24 463 24 464 24 C464.1250363 31.09491018 463.63878562 38.00667971 462.94374084 45.06489563 C462.83010694 46.25399337 462.71647304 47.44309112 462.59939569 48.66822213 C462.2851927 51.94693226 461.9671604 55.22524409 461.64745533 58.50342143 C461.30281261 62.04704118 460.96315247 65.59113905 460.62284851 69.13517761 C459.95635523 76.06792181 459.28525812 83.00021288 458.61254222 89.93235574 C457.82921991 98.00580689 457.05026104 106.07967726 456.27142125 114.15356185 C454.88190728 128.55625704 453.48811161 142.95853472 452.09204102 157.3605957 C450.73721922 171.33713901 449.38592614 185.3140179 448.03833008 199.29125977 C446.57028187 214.51777889 445.10032862 229.74411177 443.62701124 244.97012204 C443.46999788 246.59279987 443.31298527 248.21547777 443.15597343 249.83815575 C443.07871906 250.63652999 443.00146468 251.43490423 442.92186927 252.25747162 C442.37728128 257.88666445 441.83401281 263.51598373 441.2912159 269.1453495 C440.63014569 276.00075279 439.96685926 282.85593743 439.30074722 289.71085272 C438.96088186 293.20890132 438.62198883 296.70703685 438.28571701 300.20543289 C437.92152186 303.99395227 437.5526301 307.78200572 437.1832428 311.57002258 C437.07720909 312.68060715 436.97117538 313.79119171 436.86192852 314.93543035 C436.7624024 315.94802897 436.66287627 316.96062759 436.56033421 318.00391102 C436.47565657 318.87846465 436.39097894 319.75301828 436.30373532 320.65407354 C436 323 436 323 435 327 C148.56 327 -137.88 327 -433 327 C-433.92320401 324.23038797 -434.28083553 322.01588865 -434.56033421 319.12975216 C-434.65986033 318.11976129 -434.75938645 317.10977041 -434.86192852 316.06917375 C-435.02097909 314.39995083 -435.02097909 314.39995083 -435.1832428 312.69700623 C-435.29843669 311.51726842 -435.41363058 310.33753062 -435.53231519 309.12204319 C-435.85186134 305.8419086 -436.16823265 302.56149554 -436.48326933 299.28092659 C-436.82361648 295.74472349 -437.16799849 292.20891307 -437.51185608 288.67304993 C-438.18519808 281.7421245 -438.85468328 274.81083168 -439.52274973 267.87939595 C-440.06600159 262.24347566 -440.61053086 256.6076802 -441.15597343 250.97197151 C-441.27233537 249.76962992 -441.27233537 249.76962992 -441.39104806 248.5429986 C-441.54864103 246.91465037 -441.7062355 245.28630229 -441.86383145 243.65795434 C-443.34282313 228.37450616 -444.81729607 213.09062452 -446.29036557 197.80660457 C-447.63732165 183.83248485 -448.98969749 169.85889598 -450.34468693 155.88555311 C-451.73602812 141.53686444 -453.12382441 127.18783704 -454.50774759 112.83843094 C-455.28472072 104.7828861 -456.06306511 96.72747957 -456.84507942 88.67242241 C-457.51116304 81.81104586 -458.17386655 74.94935293 -458.83226735 68.08723473 C-459.16809021 64.58810128 -459.50542288 61.08913149 -459.84694672 57.59054947 C-460.21697682 53.79140387 -460.58109047 49.99173539 -460.94374084 46.19187927 C-461.05200528 45.09467904 -461.16026971 43.99747881 -461.27181488 42.86703008 C-461.86669922 36.55566865 -462.13382863 30.33887284 -462 24 C-455.44546558 27.96687254 -449.27981496 32.23498803 -443.25 36.96118164 C-438.86243302 40.38101524 -434.36843704 43.62110028 -429.8125 46.8125 C-423.86491877 50.97922771 -417.94526447 55.17963907 -412.0625 59.4375 C-411.31653564 59.97737549 -410.57057129 60.51725098 -409.80200195 61.07348633 C-408.28986573 62.16838044 -406.77790301 63.26351422 -405.26611328 64.35888672 C-401.513552 67.07648173 -397.75656581 69.78794473 -394 72.5 C-392.49997854 73.58330362 -390.99997854 74.66663696 -389.5 75.75 C-388.7575 76.28625 -388.015 76.8225 -387.25 77.375 C-367 92 -346.75 106.625 -326.5 121.25 C-325.7570166 121.78657227 -325.0140332 122.32314453 -324.24853516 122.87597656 C-322.75331489 123.95591198 -321.25819716 125.03598939 -319.76318359 126.11621094 C-315.94089565 128.8777244 -312.11668417 131.63650813 -308.2890625 134.390625 C-299.79267526 140.50805914 -291.34045497 146.67106652 -283 153 C-284.50491192 156.45105456 -286.51583979 158.86724097 -289.0625 161.625 C-289.86816406 162.50414062 -290.67382812 163.38328125 -291.50390625 164.2890625 C-292.32761719 165.18367187 -293.15132812 166.07828125 -294 167 C-295.50227644 168.66461506 -297.00232819 170.3312409 -298.5 172 C-307.5 182 -316.5 192 -325.5 202 C-326.23863281 202.82242188 -326.97726562 203.64484375 -327.73828125 204.4921875 C-329.27048451 206.19110717 -330.80978608 207.88364716 -332.35546875 209.5703125 C-336.87396687 214.52022501 -341.11042371 219.53933996 -345 225 C-344.29746094 225.24363281 -343.59492187 225.48726562 -342.87109375 225.73828125 C-339.55702771 227.19466673 -336.97704376 229.03671801 -334.0625 231.1875 C-327.89261177 235.68331596 -321.62739762 240.02298024 -315.3125 244.3125 C-314.37204834 244.95179443 -313.43159668 245.59108887 -312.46264648 246.24975586 C-310.56303532 247.54067337 -308.66321545 248.83128381 -306.76318359 250.12158203 C-302.5447 252.98931598 -298.33422781 255.86870395 -294.125 258.75 C-293.34769531 259.28197998 -292.57039063 259.81395996 -291.76953125 260.36206055 C-282.72281951 266.55588716 -273.69031959 272.77036303 -264.66015625 278.98828125 C-263.94303467 279.48183105 -263.22591309 279.97538086 -262.48706055 280.48388672 C-261.12498098 281.42132999 -259.76314608 282.3591289 -258.40161133 283.29736328 C-257.17683451 284.14020333 -255.94901454 284.97864328 -254.71777344 285.81201172 C-253.06365808 286.95597495 -251.45617708 288.16648655 -249.8515625 289.37890625 C-247.22785795 291.2255762 -247.22785795 291.2255762 -244.82006836 290.81835938 C-241.06225435 289.72787435 -237.57372784 288.15742159 -234.02734375 286.52734375 C-233.24451019 286.17275085 -232.46167664 285.81815796 -231.65512085 285.45281982 C-229.96457676 284.68642104 -228.27509794 283.917669 -226.58657837 283.14682007 C-222.9877016 281.50391137 -219.38375821 279.8722642 -215.78001404 278.24006653 C-213.92279432 277.39882356 -212.06583253 276.55701094 -210.2091217 275.71464539 C-201.26436392 271.65851876 -192.29168728 267.66668291 -183.3125 263.6875 C-180.3370322 262.36765459 -177.36182243 261.04722846 -174.38671875 259.7265625 C-173.67189835 259.40928192 -172.95707794 259.09200134 -172.22059631 258.7651062 C-165.34831314 255.71333468 -158.485497 252.64068149 -151.625 249.5625 C-150.49771484 249.0571875 -149.37042969 248.551875 -148.20898438 248.03125 C-141.9627365 245.23036696 -135.71927077 242.42343488 -129.4786377 239.61006165 C-125.95953946 238.02446474 -122.43907417 236.44191795 -118.918396 234.85983276 C-117.18832926 234.08151547 -115.45887153 233.30184296 -113.7300415 232.52078247 C-111.31763256 231.43103307 -108.90320492 230.34588154 -106.48828125 229.26171875 C-105.39515877 228.76588791 -105.39515877 228.76588791 -104.279953 228.26004028 C-99.22781383 226 -99.22781383 226 -97 226 C-102.87907221 218.06742207 -108.79126419 210.17863035 -115 202.5 C-119.63842757 196.76247993 -124.09459861 190.91186625 -128.4934082 184.98925781 C-132.44100919 179.69484343 -136.53565629 174.53366754 -140.68457031 169.39624023 C-145.26991225 163.70422312 -149.66208595 157.88247436 -154 152 C-152.51873643 148.56069417 -150.57572554 146.33045662 -147.9296875 143.69921875 C-147.115 142.88646484 -146.3003125 142.07371094 -145.4609375 141.23632812 C-144.60757812 140.39521484 -143.75421875 139.55410156 -142.875 138.6875 C-142.04484375 137.85798828 -141.2146875 137.02847656 -140.359375 136.17382812 C-136.72908421 132.56914284 -133.09082486 129.02486264 -129.1953125 125.70703125 C-123.1328641 120.49144203 -117.61748867 114.68417451 -112 109 C-99.33776642 96.18745161 -99.33776642 96.18745161 -93.10546875 90.8828125 C-88.01559498 86.33119997 -83.29726237 81.35671502 -78.5 76.5 C-66.39801899 64.2480387 -66.39801899 64.2480387 -62.03125 60.53125 C-56.00641187 55.39665851 -50.55997688 49.62598 -45 44 C-32.31210754 31.16148813 -32.31210754 31.16148813 -26.109375 25.88232422 C-21.02407982 21.34440456 -16.29920142 16.39950725 -11.5 11.5625 C-10.38044368 10.4379167 -9.26065371 9.31356595 -8.140625 8.18945312 C-5.42438466 5.46230656 -2.71131708 2.73204093 0 0 Z " fill="#FFFFFF" transform="translate(1870,0)"/>
<path d="M0 0 C24.42 0 48.84 0 74 0 C77.96 5.28 81.92 10.56 86 16 C88.20291096 18.90042115 90.40758656 21.79832324 92.625 24.6875 C93.16511719 25.39261719 93.70523438 26.09773438 94.26171875 26.82421875 C98.30623949 32.10217489 102.36152212 37.37183164 106.41796875 42.640625 C111.0684032 48.68637123 115.69533244 54.75016216 120.32666016 60.81054688 C123.05033263 64.37428991 125.7752013 67.93711803 128.5 71.5 C131.78577558 75.79640199 135.07125741 80.09302712 138.35546875 84.390625 C144.01915757 91.80105897 149.69156243 99.20445483 155.3828125 106.59375 C157.38298732 109.19382064 159.37612314 111.79919661 161.3671875 114.40625 C162.23923828 115.54803711 162.23923828 115.54803711 163.12890625 116.71289062 C164.2648358 118.20078045 165.40027866 119.68904201 166.53515625 121.17773438 C167.05722656 121.86158203 167.57929688 122.54542969 168.1171875 123.25 C168.57722168 123.85328125 169.03725586 124.4565625 169.51123047 125.078125 C171.31452541 127.40602559 173.16048852 129.70061065 175 132 C175 88.44 175 44.88 175 0 C197.77 0 220.54 0 244 0 C244 85.47 244 170.94 244 259 C224.86 259 205.72 259 186 259 C181.71 253.39 177.42 247.78 173 242 C169.66859397 237.66515842 166.33570837 233.33152343 163 229 C161.33304708 226.83355349 159.66652587 224.66677503 158 222.5 C157.16667453 221.41666062 156.3333412 220.33332728 155.5 219.25 C137.16666667 195.41666667 118.83333333 171.58333333 100.5 147.75 C100.0877417 147.21407227 99.6754834 146.67814453 99.25073242 146.12597656 C98.41492624 145.03941221 97.57915165 143.95282355 96.7434082 142.86621094 C94.69816364 140.20711452 92.65230009 137.5485006 90.60546875 134.890625 C89.80753906 133.85421875 89.00960937 132.8178125 88.1875 131.75 C87.78926025 131.23276367 87.39102051 130.71552734 86.98071289 130.18261719 C84.48567781 126.93931596 81.99838315 123.69021035 79.515625 120.4375 C78.92241455 119.66051758 78.3292041 118.88353516 77.71801758 118.08300781 C76.54530877 116.54641034 75.37325421 115.0093133 74.2019043 113.47167969 C73.66992432 112.77461914 73.13794434 112.07755859 72.58984375 111.359375 C72.11409912 110.73514648 71.63835449 110.11091797 71.14819336 109.46777344 C70.07439183 108.03397061 70.07439183 108.03397061 69 107 C68.67 156.83 68.34 206.66 68 258 C45.56 258 23.12 258 0 258 C0 172.86 0 87.72 0 0 Z " fill="#FFFFFF" transform="translate(3498,1288)"/>
<path d="M0 0 C24.72660925 23.13355916 39.33370831 56.62452801 40.68487549 90.38171387 C41.97675283 131.7789011 32.2344514 168.3822299 4.1015625 199.7109375 C-7.00236811 211.36730247 -19.9894281 219.69163668 -34.62890625 226.18359375 C-36.24539063 226.90675781 -36.24539063 226.90675781 -37.89453125 227.64453125 C-69.82666068 240.88272561 -108.31833003 239.70571101 -140.09375 226.7734375 C-151.11496059 221.8591046 -161.39623332 215.97570778 -170.62890625 208.18359375 C-171.4178125 207.52875 -172.20671875 206.87390625 -173.01953125 206.19921875 C-199.88468891 183.05125272 -213.96616689 149.11355658 -216.62890625 114.18359375 C-218.75854051 76.28751267 -209.6045859 39.41757893 -184.62890625 10.18359375 C-183.97664063 9.38566406 -183.324375 8.58773438 -182.65234375 7.765625 C-162.10987796 -16.43139931 -132.15950157 -29.04581613 -101.12890625 -32.50390625 C-63.89332093 -35.17153027 -27.89822433 -25.45042785 0 0 Z M-129.59765625 50.4921875 C-143.67150903 69.28818826 -147.00915059 94.35111785 -143.80859375 117.140625 C-140.8772778 135.4457576 -133.36672583 152.3784889 -118.62890625 164.18359375 C-105.20926486 172.8682238 -90.60558872 175.31136606 -74.95703125 172.53125 C-59.02558334 168.09102588 -48.62706382 158.24270525 -40.62890625 144.18359375 C-29.41387208 124.14565182 -28.15068967 97.19071074 -34.23046875 75.30859375 C-39.18378596 59.73044815 -48.37443894 44.66009089 -62.8125 36.3515625 C-86.94340121 24.6698188 -112.13150085 30.01104099 -129.59765625 50.4921875 Z " fill="#FFFFFF" transform="translate(469.62890625,1314.81640625)"/>
<path d="M0 0 C159.02813444 0 159.02813444 0 183.52734375 23.3359375 C195.93202931 36.70085938 200.81705394 53.90041146 200.3125 71.8046875 C199.34283795 89.1212356 191.65018066 103.36517851 179 115 C175.15995357 118.22227546 171.12329286 121.15039447 167 124 C167.94359375 124.44988281 168.8871875 124.89976563 169.859375 125.36328125 C186.44585817 133.55992573 199.63942641 145.61866326 205.86889648 163.49316406 C207.8792595 170.40187019 208.47566421 176.75985451 208.375 183.9375 C208.36412354 184.99437012 208.35324707 186.05124023 208.34204102 187.14013672 C207.99566446 204.06161167 202.04538692 219.79347078 190 232 C140.99439896 276.14554144 53.17359721 258 0 258 C0 172.86 0 87.72 0 0 Z M67 52 C67 69.49 67 86.98 67 105 C72.6925 105.04125 78.385 105.0825 84.25 105.125 C86.02020508 105.14320801 87.79041016 105.16141602 89.61425781 105.18017578 C109.31449893 105.4083034 109.31449893 105.4083034 126.0390625 96.0703125 C132.50626517 89.01760176 133.56539578 83.16285338 133.3125 73.67578125 C132.76704692 67.25988939 130.74775773 63.83098429 126.375 59.25 C117.8674919 52.8585726 107.93522986 51.83926036 97.6640625 51.90234375 C96.49363403 51.90385437 96.49363403 51.90385437 95.29956055 51.90539551 C92.40802524 51.91059459 89.51651101 51.92455567 86.625 51.9375 C76.910625 51.9684375 76.910625 51.9684375 67 52 Z M67 150 C67 168.48 67 186.96 67 206 C74.0125 206.061875 81.025 206.12375 88.25 206.1875 C90.43786133 206.21481201 92.62572266 206.24212402 94.87988281 206.27026367 C108.56783264 206.37047784 122.32667659 206.44100225 132.75 196.296875 C138.97987324 189.40807286 139.54329231 182.8845864 139.3046875 173.890625 C138.75687228 166.89544608 136.40021399 163.11958765 131.5 158.25 C121.69199842 150.25017748 108.68884337 149.8245859 96.58984375 149.90234375 C95.83223755 149.90335083 95.07463135 149.90435791 94.29406738 149.90539551 C91.50852916 149.91056245 88.72301279 149.92452276 85.9375 149.9375 C76.5634375 149.9684375 76.5634375 149.9684375 67 150 Z " fill="#FFFFFF" transform="translate(2685,1288)"/>
<path d="M0 0 C137.82231893 0 137.82231893 0 154.25 5.6875 C154.9917749 5.94096191 155.7335498 6.19442383 156.49780273 6.45556641 C172.42915706 12.18350077 185.54661472 22.68946612 193.4375 37.7421875 C201.2408704 54.8817332 202.09475659 73.72888358 195.9375 91.5 C190.46160206 104.88552829 179.97185554 116.51407223 167 123 C170.01062783 125.38578055 173.12069577 127.18316977 176.5 129 C192.01691836 138.0183799 201.66397661 150.82329662 207 168 C210.85796237 185.61884726 207.98008562 204.50019406 198.984375 220.03125 C195.77659905 224.83028488 192.10354608 228.95384617 188 233 C187.07960938 233.93585938 187.07960938 233.93585938 186.140625 234.890625 C142.80245154 276.00632803 34.41065101 258 0 258 C0 172.86 0 87.72 0 0 Z M67 52 C67 69.49 67 86.98 67 105 C72.5275 105.04125 78.055 105.0825 83.75 105.125 C86.32699707 105.15231201 86.32699707 105.15231201 88.95605469 105.18017578 C108.73048785 105.31919368 108.73048785 105.31919368 125.84765625 96.36328125 C132.02701078 89.60698453 133.66239477 83.33883815 133.40234375 74.2890625 C132.65263773 68.16039771 130.55402353 63.46020226 126.0859375 59.15625 C114.44240647 50.51886698 99.98470281 51.62295171 86.25 51.8125 C79.8975 51.874375 73.545 51.93625 67 52 Z M67 150 C67 168.48 67 186.96 67 206 C74.0125 206.061875 81.025 206.12375 88.25 206.1875 C90.43786133 206.21481201 92.62572266 206.24212402 94.87988281 206.27026367 C108.59873841 206.37147945 120.98625834 206.20936271 132 197 C137.52710739 191.32744241 139.1973564 185.9385388 139.5 178.1875 C139.29633205 169.85482435 136.91551748 163.51510546 130.9375 157.625 C118.30211959 147.92871895 100.33623061 149.86554039 85.375 149.9375 C79.31125 149.958125 73.2475 149.97875 67 150 Z " fill="#FFFFFF" transform="translate(2417,1288)"/>
<path d="M0 0 C152.14893617 0 152.14893617 0 182.125 27.625 C198.3924112 44.75911754 204.51915422 68.02161111 204.1484375 91.19140625 C202.93248177 114.19856857 195.52697481 133.66109887 179 150 C177.90365234 151.11181641 177.90365234 151.11181641 176.78515625 152.24609375 C171.70862515 157.09574078 161.41950001 166 154 166 C158.91255968 172.07867233 163.89797973 178.08016067 169 184 C172.55455271 188.12466459 176.0679218 192.27207758 179.5 196.5 C183.88945818 201.90362902 188.41682809 207.18038455 192.95703125 212.45703125 C197.21351925 217.40558716 201.42167006 222.3947854 205.63232422 227.38232422 C207.02459417 229.02908979 208.42005473 230.67310067 209.81640625 232.31640625 C214.23782419 237.52181241 218.64296419 242.74053606 223 248 C223.70125 248.845625 224.4025 249.69125 225.125 250.5625 C226.96339293 252.95241081 228.47147327 255.40495885 230 258 C219.29091242 258.39585258 208.58359315 258.69689774 197.86865044 258.88080692 C192.89139371 258.96913492 187.91917825 259.08863669 182.94482422 259.2824707 C148.05635054 260.60730933 148.05635054 260.60730933 140.35668945 254.33569336 C137.17408554 250.91282949 134.93631095 247.25997958 132.98994446 243.02561951 C131.56970316 240.11952872 129.57461203 237.84451391 127.4375 235.4375 C123.2154246 230.27194407 119.0108615 225.09218327 114.80541992 219.91308594 C109.50253059 213.38382082 104.18653619 206.8652569 98.8359375 200.375 C98.10632813 199.488125 97.37671875 198.60125 96.625 197.6875 C95.88378906 196.79675781 95.14257812 195.90601563 94.37890625 194.98828125 C92.61063079 192.76704853 90.96290176 190.55305015 89.33984375 188.23046875 C88.87819824 187.59085205 88.41655273 186.95123535 87.94091797 186.29223633 C87.04636839 185.04801071 86.1751293 183.78656254 85.33251953 182.5065918 C83.92522293 180.456961 83.92522293 180.456961 81 178 C77.7 177.67 74.4 177.34 71 177 C71 203.73 71 230.46 71 258 C47.57 258 24.14 258 0 258 C0 172.86 0 87.72 0 0 Z M70 56 C70 79.1 70 102.2 70 126 C99.41877391 127.78398669 99.41877391 127.78398669 125 116 C132.80798333 107.88312941 134.50610211 99.22891937 134.41967773 88.31103516 C134.1128856 79.38348282 131.38156762 72.34552952 125.16015625 65.8203125 C109.63899878 52.74100078 89.00801674 56 70 56 Z " fill="#FFFFFF" transform="translate(0,1288)"/>
<path d="M0 0 C149.58033573 0 149.58033573 0 176 23 C176.87978516 23.66708984 176.87978516 23.66708984 177.77734375 24.34765625 C192.53057537 35.82239195 199.39076855 54.3184794 202.5546875 72.12109375 C205.30619299 96.08815475 201.99058251 119.84721385 188 140 C178.64533345 151.73397352 167.42884663 160.25914195 154 167 C154.73863281 167.85980469 155.47726563 168.71960937 156.23828125 169.60546875 C162.7338438 177.17193009 169.19943379 184.76253653 175.63232422 192.38232422 C177.02459417 194.02908979 178.42005473 195.67310067 179.81640625 197.31640625 C184.06740059 202.32234652 188.29564292 207.3404038 192.4375 212.4375 C196.84913055 217.85570579 201.39323642 223.1527085 205.94921875 228.44921875 C210.66842794 233.93621793 215.34507295 239.45842018 220 245 C220.44601563 245.52851562 220.89203125 246.05703125 221.3515625 246.6015625 C222.63549875 248.12576752 223.91166963 249.65650355 225.1875 251.1875 C225.92355469 252.06792969 226.65960937 252.94835938 227.41796875 253.85546875 C229 256 229 256 229 258 C218.334051 258.23224053 207.66870834 258.40965214 197.000741 258.51812172 C192.04637586 258.5701976 187.0937468 258.64076174 182.14038086 258.75439453 C177.35508255 258.86347809 172.57144786 258.92292834 167.78500175 258.94877243 C165.96401217 258.96717544 164.1431084 259.00311619 162.32283211 259.05730057 C148.07866402 259.46423958 148.07866402 259.46423958 142.92388916 255.83314514 C140.64359636 253.32986107 138.8064208 250.85696882 137 248 C136.04805377 246.79463822 135.08533978 245.59749447 134.1015625 244.41796875 C133.27296776 243.34350936 132.44743036 242.26668513 131.625 241.1875 C127.95808578 236.44767625 124.20450622 231.80689061 120.3125 227.25 C116.53427843 222.82453434 112.83872423 218.34812973 109.22265625 213.7890625 C101.85775746 204.54734416 94.39832807 195.36864101 86.84375 186.28125 C85 184 85 184 83.65625 182.03125 C82.4150942 180.13562919 82.4150942 180.13562919 80 178 C77.03 177.67 74.06 177.34 71 177 C71 203.73 71 230.46 71 258 C47.57 258 24.14 258 0 258 C0 172.86 0 87.72 0 0 Z M69 56 C69 79.1 69 102.2 69 126 C99.62065497 127.74229589 99.62065497 127.74229589 124.96875 115.2890625 C131.63669665 108.59286184 134.12141051 99.61079906 134.4375 90.3125 C134.02354703 81.11206139 131.11102674 72.96496935 125 66 C109.70730411 52.58227066 87.74673501 56 69 56 Z " fill="#FFFFFF" transform="translate(1987,1288)"/>
<path d="M0 0 C27.39 0 54.78 0 83 0 C86.24563833 7.78953199 89.41921855 15.5623789 92.4140625 23.4453125 C93.02470047 25.04595047 93.02470047 25.04595047 93.64767456 26.67892456 C94.97524627 30.16026801 96.30015497 33.64261809 97.625 37.125 C98.56431322 39.58989707 99.50376866 42.05473994 100.44335938 44.51953125 C107.25370984 62.38872763 114.04446595 80.26539036 120.83251953 98.14306641 C127.14259041 114.75918753 133.48099343 131.36441268 139.82495117 147.96762085 C147.02470017 166.81176346 154.20288172 185.66400133 161.35668945 204.52563477 C164.90677407 213.88262504 168.46825348 223.23469719 172.07421875 232.5703125 C172.69600233 234.1831719 173.3177484 235.79604575 173.93945312 237.40893555 C175.06933982 240.33966662 176.2055539 243.26782866 177.34570312 246.19458008 C177.83878018 247.47207593 178.33163408 248.74965796 178.82421875 250.02734375 C179.24791748 251.11781006 179.67161621 252.20827637 180.1081543 253.33178711 C181 256 181 256 181 259 C157.24 259 133.48 259 109 259 C103.25 242.6875 103.25 242.6875 101.46191406 237.61206055 C100.97989502 236.24525268 100.49780179 234.87847097 100.015625 233.51171875 C99.62966156 232.41630013 99.62966156 232.41630013 99.23590088 231.29875183 C97.4261319 226.1733483 95.56681344 221.06820885 93.65527344 215.97973633 C93 214 93 214 93 212 C42.51 212.495 42.51 212.495 -9 213 C-14.28 228.18 -19.56 243.36 -25 259 C-49.09 259 -73.18 259 -98 259 C-89.96755548 236.0501585 -89.96755548 236.0501585 -87.046875 228.5234375 C-86.70933701 227.64559601 -86.37179901 226.76775452 -86.02403259 225.86331177 C-85.30655885 223.99814348 -84.58779374 222.13347146 -83.86776733 220.26928711 C-81.88595934 215.13769922 -79.91461063 210.00208832 -77.94140625 204.8671875 C-77.53255692 203.80405334 -77.12370758 202.74091919 -76.70246887 201.64556885 C-72.33204155 190.27589141 -68.00841258 178.88856537 -63.6875 167.5 C-56.979126 149.82536062 -50.24762819 132.15968943 -43.5 114.5 C-36.67289518 96.63053818 -29.85736612 78.75674731 -23.0625 60.875 C-22.52375244 59.45755493 -22.52375244 59.45755493 -21.97412109 58.01147461 C-14.62825655 38.68230769 -7.31777888 19.33984419 0 0 Z M41 63 C40.74880905 63.70790176 40.4976181 64.41580353 40.23881531 65.14515686 C36.56895955 75.48747762 32.8991038 85.82979838 29.22924805 96.17211914 C28.99110823 96.84324549 28.75296841 97.51437183 28.50761223 98.20583534 C28.02611488 99.56277221 27.54460466 100.91970451 27.06308174 102.27663231 C25.85269662 105.68753938 24.64253615 109.09852584 23.43283081 112.50967407 C21.16279575 118.91003326 18.89074178 125.30965191 16.61109066 131.70659351 C15.57730969 134.60781096 14.54464399 137.5094248 13.51206398 140.41106987 C13.01934795 141.79461114 12.52606584 143.17795095 12.03220177 144.56108284 C11.3518578 146.46657454 10.67355402 148.37279431 9.99536133 150.27905273 C9.60890945 151.36290756 9.22245758 152.44676239 8.82429504 153.5634613 C7.94658937 155.72917776 7.94658937 155.72917776 8 157 C30.11 157 52.22 157 75 157 C73.78413746 151.52861858 72.72253375 146.79791854 70.88037109 141.63598633 C70.46588715 140.4663887 70.0514032 139.29679108 69.62435913 138.0917511 C69.17855499 136.85104355 68.73275085 135.610336 68.2734375 134.33203125 C67.80177142 133.00770103 67.33055914 131.68320911 66.85977173 130.35856628 C65.62147221 126.87850823 64.37670329 123.40079844 63.13061523 119.92352295 C61.89145597 116.46158422 60.65900439 112.99725982 59.42578125 109.53320312 C57.29086205 103.53913128 55.14541872 97.54890578 52.9932518 91.56100655 C51.50804596 87.4257355 50.03836132 83.28520372 48.57519531 79.14208984 C47.85499522 77.11940293 47.1346295 75.09677498 46.4140625 73.07421875 C46.09303558 72.15566605 45.77200867 71.23711334 45.44125366 70.29072571 C45.14562531 69.46606308 44.84999695 68.64140045 44.54541016 67.79174805 C44.29312653 67.07778366 44.0408429 66.36381927 43.78091431 65.6282196 C43.10802981 63.79856804 43.10802981 63.79856804 41 63 Z " fill="#FFFFFF" transform="translate(858,1287)"/>
<path d="M0 0 C27.39 0 54.78 0 83 0 C86.196875 8.435625 89.39375 16.87125 92.6875 25.5625 C100.2663045 45.55142006 107.86687304 65.53175151 115.5 85.5 C122.69509409 104.32261544 129.85947261 123.15661761 137 142 C144.35384602 161.4039245 151.72500341 180.80112464 159.125 200.1875 C159.56387543 201.33761566 160.00275085 202.48773132 160.45492554 203.67269897 C164.60445997 214.54439202 168.76000653 225.41342333 172.98046875 236.2578125 C173.42072388 237.38981834 173.42072388 237.38981834 173.86987305 238.54469299 C175.17564204 241.90000476 176.48539936 245.25365219 177.80322266 248.60424805 C178.23554199 249.7106665 178.66786133 250.81708496 179.11328125 251.95703125 C179.66689331 253.36432495 179.66689331 253.36432495 180.23168945 254.80004883 C181 257 181 257 181 259 C157.24 259 133.48 259 109 259 C102.36088166 244.06198374 97.41877939 228.4226798 92 213 C58.34 212.67 24.68 212.34 -10 212 C-10.99 215.63 -11.98 219.26 -13 223 C-13.93088056 225.83136198 -14.87826403 228.63756897 -15.8828125 231.44140625 C-16.14254852 232.17576401 -16.40228455 232.91012177 -16.66989136 233.66673279 C-17.21085348 235.19392583 -17.7536744 236.7204617 -18.29833984 238.24633789 C-19.13406281 240.58789245 -19.96397425 242.93144644 -20.79296875 245.27539062 C-21.32258693 246.76834618 -21.85252292 248.26118904 -22.3828125 249.75390625 C-22.6307254 250.45278458 -22.87863831 251.1516629 -23.13406372 251.87171936 C-24.88263939 256.76527878 -24.88263939 256.76527878 -26 259 C-49.76 259 -73.52 259 -98 259 C-97.2922349 255.46117449 -96.60404915 252.66077029 -95.35205078 249.3605957 C-95.012267 248.45923386 -94.67248322 247.55787201 -94.32240295 246.62919617 C-93.9504631 245.65456924 -93.57852325 244.67994232 -93.1953125 243.67578125 C-92.80480209 242.64326736 -92.41429169 241.61075348 -92.01194763 240.54695129 C-90.72004416 237.13403498 -89.42256831 233.72326618 -88.125 230.3125 C-87.21444447 227.91076503 -86.30421149 225.50890775 -85.39428711 223.10693359 C-83.05102811 216.92423936 -80.70307401 210.7433459 -78.3538208 204.56292725 C-76.6831806 200.16620835 -75.01526028 195.76846138 -73.34765625 191.37059021 C-63.88511007 166.41642405 -54.3714479 141.48182021 -44.8449707 116.55200195 C-39.356069 102.18566481 -33.8882065 87.81149269 -28.43353271 73.43212891 C-21.79578885 55.93595211 -15.11700311 38.45628938 -8.375 21 C-8.00443481 20.03977936 -7.63386963 19.07955872 -7.2520752 18.09024048 C-6.21877537 15.41384308 -5.18395847 12.73803869 -4.1484375 10.0625 C-3.84213409 9.26929855 -3.53583069 8.47609711 -3.22024536 7.65885925 C-1.11606265 2.2321253 -1.11606265 2.2321253 0 0 Z M41 63 C37.4845199 71.18930926 34.3348314 79.44756814 31.41796875 87.8671875 C31.00009598 89.06320587 30.58222321 90.25922424 30.15168762 91.4914856 C29.04918937 94.64834604 27.94960555 97.80618655 26.85174561 100.96466064 C24.89935594 106.5796422 22.93978443 112.19212006 20.98046875 117.8046875 C20.5609494 119.008974 20.14143005 120.2132605 19.709198 121.45404053 C16.67637019 130.13682049 13.55794856 138.78568237 10.32597351 147.39645386 C10.01771133 148.2287149 9.70944916 149.06097595 9.3918457 149.91845703 C9.1215303 150.63905304 8.8512149 151.35964905 8.57270813 152.1020813 C7.85555514 154.14827361 7.85555514 154.14827361 8 157 C30.11 157 52.22 157 75 157 C72.66308374 149.14093872 72.66308374 149.14093872 70.08984375 141.38378906 C69.74483322 140.39931793 69.39982269 139.4148468 69.0443573 138.40054321 C68.67909439 137.3660202 68.31383148 136.33149719 67.9375 135.265625 C67.54923538 134.16076752 67.16097076 133.05591003 66.76094055 131.91757202 C65.50990992 128.36078718 64.25518696 124.80532 63 121.25 C62.36304703 119.44218048 62.36304703 119.44218048 61.71322632 117.59783936 C55.28212724 99.34635857 48.76871647 81.12924059 42 63 C41.67 63 41.34 63 41 63 Z " fill="#FFFFFF" transform="translate(3267,1287)"/>
<path d="M0 0 C27.39 0 54.78 0 83 0 C91.49318813 22.03183455 99.94371803 44.07828137 108.32202148 66.1539917 C114.6311865 82.77738883 120.9645596 99.39137371 127.3125 116 C135.48384642 137.38117846 143.61402437 158.77772484 151.72045898 180.18359375 C156.22577382 192.07615835 160.7450131 203.96307967 165.29759979 215.83761597 C166.0468671 217.79210028 166.79574223 219.7467344 167.54449463 221.70141602 C168.03355858 222.97803146 168.5226332 224.25464283 169.01171875 225.53125 C169.25075802 226.1551915 169.48979729 226.779133 169.73608017 227.42198181 C171.37129284 231.68893773 173.01145902 235.95397284 174.65234375 240.21875 C175.49493764 242.41661071 176.33739345 244.61452436 177.1796875 246.8125 C177.76385941 248.32517456 177.76385941 248.32517456 178.35983276 249.8684082 C178.71014557 250.78452881 179.06045837 251.70064941 179.42138672 252.64453125 C179.72809296 253.44221924 180.03479919 254.23990723 180.35079956 255.06176758 C181 257 181 257 181 259 C157.24 259 133.48 259 109 259 C106.56467667 252.91169168 104.17113248 246.86434744 101.984375 240.69140625 C101.59333588 239.5913047 101.59333588 239.5913047 101.19439697 238.46897888 C100.65226405 236.94105243 100.11123215 235.41273488 99.57128906 233.8840332 C98.74252233 231.54136292 97.90650712 229.20135582 97.0703125 226.86132812 C96.54122346 225.36734439 96.01256175 223.87320923 95.484375 222.37890625 C95.23443787 221.68205215 94.98450073 220.98519806 94.72698975 220.26722717 C93.71162795 217.37215963 93 215.09307687 93 212 C59.01 212 25.02 212 -10 212 C-10.495 214.97 -10.495 214.97 -11 218 C-11.42104146 219.45783814 -11.88064586 220.90523759 -12.3828125 222.3371582 C-12.6597998 223.1343074 -12.93678711 223.9314566 -13.22216797 224.75276184 C-13.52010254 225.59360825 -13.81803711 226.43445465 -14.125 227.30078125 C-14.43195801 228.17776169 -14.73891602 229.05474213 -15.05517578 229.95829773 C-15.70176166 231.80220361 -16.35073352 233.64527436 -17.00195312 235.48754883 C-18.00208701 238.31840724 -18.99378654 241.15211723 -19.984375 243.98632812 C-20.61408947 245.77881941 -21.24428097 247.57114319 -21.875 249.36328125 C-22.17293457 250.21424881 -22.47086914 251.06521637 -22.77783203 251.94197083 C-24.88426057 257.88426057 -24.88426057 257.88426057 -26 259 C-28.23929886 259.09436529 -30.4816175 259.11742327 -32.72290039 259.11352539 C-33.4253035 259.11367142 -34.1277066 259.11381744 -34.85139465 259.1139679 C-37.18351278 259.11326872 -39.515552 259.10547617 -41.84765625 259.09765625 C-43.46048438 259.09579208 -45.07331307 259.09436818 -46.68614197 259.09336853 C-50.93915357 259.08954323 -55.19213124 259.07971285 -59.44512939 259.06866455 C-63.7817743 259.05845069 -68.11842467 259.05387096 -72.45507812 259.04882812 C-80.97006769 259.03809059 -89.48502963 259.02101403 -98 259 C-95.90591118 251.60572955 -93.37944026 244.4443086 -90.6328125 237.26953125 C-90.20616302 236.14669235 -89.77951355 235.02385345 -89.3399353 233.86698914 C-88.18040152 230.81754015 -87.01776107 227.76929894 -85.85366821 224.72158813 C-84.61668487 221.4807301 -83.38381872 218.23830612 -82.15039062 214.99609375 C-79.34914106 207.63526163 -76.54177327 200.2767719 -73.73262024 192.91895294 C-72.57643029 189.89054342 -71.42058176 186.86200358 -70.26464844 183.83349609 C-66.81108859 174.78654824 -63.35630291 165.74006984 -59.89892578 156.69458008 C-53.57260302 140.1397989 -47.27999982 123.57240283 -41 107 C-34.03105008 88.61209636 -27.05005772 70.22888039 -20.03979492 51.85668945 C-19.15762693 49.54464164 -18.27577606 47.2324728 -17.39428711 44.92016602 C-16.16365097 41.69246801 -14.93163243 38.46530091 -13.69921875 35.23828125 C-13.35622238 34.33821854 -13.01322601 33.43815582 -12.65983582 32.51081848 C-8.50660802 21.64722829 -4.23853128 10.83180216 0 0 Z M41 62 C40.74880905 62.70790176 40.4976181 63.41580353 40.23881531 64.14515686 C36.56895955 74.48747762 32.8991038 84.82979838 29.22924805 95.17211914 C28.87203832 96.17881621 28.87203832 96.17881621 28.50761223 97.2058506 C28.0261277 98.56274116 27.54461741 99.91962257 27.06308174 101.27649498 C25.85239502 104.68807362 24.64215827 108.09981062 23.43283081 111.51187134 C21.16666462 117.90430481 18.89652631 124.29523213 16.61109066 130.68080616 C15.5765323 133.57203085 14.54421339 136.46405282 13.51206398 139.35613823 C13.01992247 140.73305006 12.52664821 142.10955757 12.03220177 143.48564339 C11.35044677 145.38322118 10.67279692 147.28227237 9.99536133 149.18139648 C9.60890945 150.2600145 9.22245758 151.33863251 8.82429504 152.44993591 C7.89747495 154.87051138 7.89747495 154.87051138 8 157 C30.11 157 52.22 157 75 157 C72.70554621 148.42212612 72.70554621 148.42212612 69.98217773 140.05493164 C69.6142662 139.02497574 69.24635468 137.99501984 68.86729431 136.93385315 C68.47667313 135.85353317 68.08605194 134.7732132 67.68359375 133.66015625 C67.26763443 132.49914902 66.85167511 131.33814178 66.42311096 130.14195251 C65.09847206 126.44738867 63.76814235 122.75490531 62.4375 119.0625 C61.57187823 116.65183178 60.70664111 114.2410254 59.84179688 111.83007812 C58.11366756 107.01381816 56.3834619 102.19831161 54.65185547 97.38330078 C50.41506356 85.59584934 46.20829449 73.79764912 42 62 C41.67 62 41.34 62 41 62 Z " fill="#FFFFFF" transform="translate(1753,1287)"/>
<path d="M0 0 C56.76 0 113.52 0 172 0 C181 56 181 56 181 59 C144.37 59 107.74 59 70 59 C70 72.86 70 86.72 70 101 C100.69 101 131.38 101 163 101 C163 118.49 163 135.98 163 154 C132.31 154 101.62 154 70 154 C70 168.85 70 183.7 70 199 C106.96 199 143.92 199 182 199 C179.31203569 218.71173827 176.18448195 238.36236133 173 258 C115.91 258 58.82 258 0 258 C0 172.86 0 87.72 0 0 Z " fill="#FFFFFF" transform="translate(2950,1288)"/>
<path d="M0 0 C1 1 1 1 1.12025452 3.81568909 C1.11803391 5.07477585 1.11581329 6.33386261 1.11352539 7.63110352 C1.11367142 8.32375305 1.11381744 9.01640259 1.1139679 9.7300415 C1.11326874 12.02969446 1.10547628 14.32926737 1.09765625 16.62890625 C1.09579208 18.21931412 1.09436817 19.80972257 1.09336853 21.40013123 C1.08954329 25.5939593 1.07971295 29.78775295 1.06866455 33.98156738 C1.05845057 38.25788914 1.05387094 42.53421644 1.04882812 46.81054688 C1.03809069 55.20704708 1.02101419 63.60351926 1 72 C-3.08472294 70.45873996 -5.9623313 68.61851797 -9.375 65.875 C-28.66714855 51.00032529 -52.651055 43.24632034 -77 45 C-91.36421482 46.87633541 -104.60603295 53.54975194 -114.1875 64.5 C-123.97433936 77.25254825 -129.04171 92.00853558 -130 108 C-130.04125 108.66773438 -130.0825 109.33546875 -130.125 110.0234375 C-130.69770883 129.28077185 -124.94725473 150.02610002 -111.7109375 164.41796875 C-98.49254301 176.64045681 -81.70554847 181.70910893 -63.91796875 181.28515625 C-41.38978578 179.64551781 -20.95771431 171.49186554 -2.42749023 158.79394531 C1.69992898 156 1.69992898 156 5 156 C4.38448653 169.28461959 2.99912621 182.47292392 1.52587891 195.6862793 C1.12097757 199.34888558 0.73437527 203.01316931 0.34765625 206.67773438 C0.08966499 209.01054117 -0.16940922 211.34322852 -0.4296875 213.67578125 C-0.54230927 214.76941483 -0.65493103 215.8630484 -0.77096558 216.98982239 C-0.8876358 217.99905258 -1.00430603 219.00828278 -1.12451172 220.0480957 C-1.22142303 220.9347139 -1.31833435 221.82133209 -1.41818237 222.7348175 C-2.09901686 225.38550097 -2.87874314 226.31265004 -5 228 C-34.94128055 245.55307572 -76.02958128 251.81485728 -109.77636719 243.58642578 C-142.20913069 235.03312122 -168.0532374 217.19040511 -185.37890625 188.06640625 C-198.40586057 165.24466733 -203.22993962 140.20920728 -203.25 114.1875 C-203.25067474 113.40410248 -203.25134949 112.62070496 -203.25204468 111.81356812 C-203.20616444 78.30169624 -193.62567551 47.0341198 -172 21 C-171.33097656 20.17757813 -170.66195313 19.35515625 -169.97265625 18.5078125 C-150.30435938 -4.74019485 -120.02248062 -17.72001505 -90.1875 -20.625 C-57.59443253 -22.92028644 -28.24906237 -16.10840891 0 0 Z " fill="#FFFFFF" transform="translate(1610,1304)"/>
<path d="M0 0 C26.73 0 53.46 0 81 0 C95.85 29.7 110.7 59.4 126 90 C129.4553016 85.73781581 129.4553016 85.73781581 132.06877136 81.2164917 C132.42621933 80.5042746 132.7836673 79.7920575 133.15194702 79.05825806 C133.52872589 78.29234344 133.90550476 77.52642883 134.29370117 76.73730469 C134.70232895 75.91888092 135.11095673 75.10045715 135.53196716 74.25723267 C136.87457222 71.56486325 138.20871618 68.86839198 139.54296875 66.171875 C140.47592392 64.29782589 141.40947023 62.42407095 142.34358215 60.55059814 C144.7962282 55.62821505 147.24198952 50.70244501 149.68597412 45.77575684 C153.60677302 37.87487133 157.53782113 29.97908178 161.46923256 22.08347321 C162.84357609 19.3207815 164.21487851 16.55659658 165.58573914 13.79217529 C166.42192265 12.10979065 167.25816703 10.42743627 168.09448242 8.74511719 C168.47733398 7.97110565 168.86018555 7.19709412 169.25463867 6.39962769 C171.8865757 1.1134243 171.8865757 1.1134243 173 0 C175.37300869 -0.09494733 177.71678703 -0.12559319 180.09008789 -0.11352539 C180.83150528 -0.11367142 181.57292267 -0.11381744 182.33680725 -0.1139679 C184.79878621 -0.11326865 187.26069043 -0.10547574 189.72265625 -0.09765625 C191.42516539 -0.09579211 193.12767507 -0.09436819 194.83018494 -0.09336853 C199.31993073 -0.08954302 203.80964438 -0.07971247 208.29937744 -0.06866455 C212.87731491 -0.05845113 217.45525756 -0.05387106 222.03320312 -0.04882812 C231.02214957 -0.03809022 240.01107212 -0.02101341 249 0 C247.54303374 3.72442579 245.89434645 7.16063065 243.9453125 10.65625 C243.33679443 11.75018066 242.72827637 12.84411133 242.10131836 13.97119141 C241.44268488 15.14753895 240.78390865 16.32380657 240.125 17.5 C239.44330863 18.72176874 238.76175091 19.94361205 238.08032227 21.16552734 C233.59963996 29.18973502 229.06430243 37.18202813 224.48632812 45.15112305 C220.64628377 51.84243868 216.88028522 58.57332189 213.125 65.3125 C208.47014268 73.66195361 203.71975493 81.94687007 198.875 90.1875 C193.930723 98.59960945 189.18296377 107.0940787 184.55395508 115.68310547 C179.16388042 125.63636322 173.423738 135.38256919 167.66235352 145.12426758 C167.11377686 146.07325928 166.5652002 147.02225098 166 148 C165.59314091 148.62294512 165.18628181 149.24589024 164.76709366 149.88771248 C161.10296461 155.80832709 160.27542745 160.40444864 160.34057617 167.29321289 C160.33009247 168.27963776 160.31960876 169.26606262 160.30880737 170.28237915 C160.28021904 173.51279789 160.28633006 176.7421345 160.29296875 179.97265625 C160.27984395 182.22425163 160.26453734 184.47583526 160.24714661 186.72740173 C160.20737577 192.63091268 160.19711119 198.53411504 160.19311523 204.43774414 C160.18212346 211.53317506 160.13426474 218.6284427 160.09262848 225.72374725 C160.03359983 236.48263622 160.02122917 247.24067111 160 258 C136.9 258 113.8 258 90 258 C90.11794922 247.57212891 90.11794922 247.57212891 90.23828125 236.93359375 C90.25914648 232.48089195 90.27610481 228.0288365 90.27929688 223.57617188 C90.28470619 216.53644924 90.30314042 209.49875309 90.40795898 202.4597168 C92.00003812 167.72088809 92.00003812 167.72088809 77.70584106 137.22819519 C74.52360711 133.07151346 72.16991194 128.4084125 69.6875 123.8125 C64.50522593 114.63353585 59.27531962 105.48216413 54.03744507 96.33486938 C48.73177719 87.06578689 43.49327476 77.76067424 38.28930664 68.43408203 C33.90863362 60.59433099 29.46488005 52.79193452 25 45 C19.68979424 35.73018336 14.41249314 26.44317915 9.1875 17.125 C8.60677734 16.09117188 8.02605469 15.05734375 7.42773438 13.9921875 C6.61852539 12.54585937 6.61852539 12.54585937 5.79296875 11.0703125 C5.3239917 10.23258301 4.85501465 9.39485352 4.37182617 8.53173828 C2.84944169 5.72214101 1.42909001 2.85818003 0 0 Z " fill="#FFFFFF" transform="translate(526,1288)"/>
<path d="M0 0 C23.1 0 46.2 0 70 0 C70 64.35 70 128.7 70 195 C106.96 195 143.92 195 182 195 C178.8458511 216.02765931 175.64321105 237.05153647 172 258 C115.24 258 58.48 258 0 258 C0 172.86 0 87.72 0 0 Z " fill="#FFFFFF" transform="translate(1088,1288)"/>
<path d="M0 0 C23.1 0 46.2 0 70 0 C70 85.14 70 170.28 70 258 C46.9 258 23.8 258 0 258 C0 172.86 0 87.72 0 0 Z " fill="#FFFFFF" transform="translate(2270,1288)"/>
<path d="M0 0 C7.61963783 5.90787028 12.86999996 15.30296856 14.75 24.76171875 C16.34831277 39.07161279 13.85283376 52.3806557 5 64 C-1.76723158 71.45270546 -10.82690456 76.62679998 -20.94140625 77.23828125 C-33.39983279 77.5394443 -43.07333681 76.28067238 -52.93359375 67.97265625 C-61.56794299 59.73003552 -66.31797806 49.8551045 -67.23828125 37.90625 C-67.55093451 23.55711068 -63.83750857 12.65003646 -54.19140625 2.00390625 C-39.0700563 -12.61444661 -16.32378573 -11.98023926 0 0 Z M-51 7 C-59.29054441 16.57590013 -61.63800642 25.78085333 -61.34765625 38.31640625 C-60.43227725 48.01530961 -56.09744216 57.53648165 -48.70703125 64.0078125 C-39.69485858 70.68660093 -31.2218642 73.23728246 -20 72 C-10.18276969 69.98827248 -3.00589166 64.44071414 2.88671875 56.4375 C9.29763699 46.25454027 10.66452773 35.48211435 8.34765625 23.67578125 C4.94946971 12.28529331 -1.77963054 4.87838243 -12 -1 C-25.53786012 -6.98789967 -40.77998126 -2.92162403 -51 7 Z " fill="#FFFFFF" transform="translate(3850,1292)"/>
<path d="M0 0 C25.57142857 0 25.57142857 0 32 5.625 C34.4819398 9.81327342 35.29661165 13.14952717 35 18 C33.33712395 22.80386413 30.58722503 25.49510473 27 29 C27.33322266 29.4439209 27.66644531 29.8878418 28.00976562 30.34521484 C29.51145718 32.35149576 31.00579094 34.36314112 32.5 36.375 C33.02464844 37.07367187 33.54929687 37.77234375 34.08984375 38.4921875 C34.58613281 39.1625 35.08242187 39.8328125 35.59375 40.5234375 C36.05458984 41.14138184 36.51542969 41.75932617 36.99023438 42.39599609 C38 44 38 44 38 46 C33.39859018 46.92174505 29.57153076 47.17130031 25 46 C21.35192638 42.99220494 18.84691775 39.06001488 16.2421875 35.16015625 C14.30767713 31.77437697 14.30767713 31.77437697 11 31 C11 35.95 11 40.9 11 46 C7.37 46 3.74 46 0 46 C0 30.82 0 15.64 0 0 Z M11 9 C11 13.29 11 17.58 11 22 C16.59627107 22.49930289 16.59627107 22.49930289 21.5625 20.375 C23.28839747 18.01639336 23.28839747 18.01639336 22.875 14.875 C22.21691176 11.90318627 22.21691176 11.90318627 20 10 C17.79749008 9.53993654 17.79749008 9.53993654 15.375 9.375 C13.93125 9.25125 12.4875 9.1275 11 9 Z " fill="#FFFFFF" transform="translate(3808,1302)"/>
</svg>
